<svg xmlns="http://www.w3.org/2000/svg" width="60" height="60">
  <path d="M12 1010.362h6v6h-6z" style="fill:#fff;fill-opacity:1;stroke:none" transform="translate(0 -992.362)" />
  <path
    d="M18 998.362h6v6h-6zm-6 0h6v6h-6zm12 6h6v6h-6zm6 0h6v6h-6zm6-6h6v6h-6zm6 0h6v6h-6zm6 0h6v6h-6zm6 6h6v6h-6zm0 6h6v6h-6zm-48-12h6v6H6zm-6 6h6v6H0zm0 6h6v6H0zm0 6h6v6H0zm54 0h6v6h-6zm-48 6h6v6H6zm6 6h6v6h-6zm6 6h6v6h-6zm6 6h6v6h-6zm6 0h6v6h-6zm6-6h6v6h-6zm6-6h6v6h-6zm6-6h6v6h-6z"
    style="fill:#000;fill-opacity:1;stroke:none" transform="translate(0 -992.362)" />
  <path d="M6 1004.362h6v6H6z" style="fill:#9d0000;fill-opacity:1;stroke:none" transform="translate(0 -992.362)" />
  <path d="M12 1004.362h6v6h-6zm6 0h6v6h-6z" style="fill:red;fill-opacity:1;stroke:none"
    transform="translate(0 -992.362)" />
  <path d="M6 1010.362h6v6H6z" style="fill:#9d0000;fill-opacity:1;stroke:none" transform="translate(0 -992.362)" />
  <path d="M12 1010.362h6v6h-6zm6 0h6v6h-6z" style="fill:red;fill-opacity:1;stroke:none"
    transform="translate(0 -992.362)" />
  <path d="M6 1016.362h6v6H6z" style="fill:#9d0000;fill-opacity:1;stroke:none" transform="translate(0 -992.362)" />
  <path d="M12 1016.362h6v6h-6zm6 0h6v6h-6z" style="fill:red;fill-opacity:1;stroke:none"
    transform="translate(0 -992.362)" />
  <path d="M12 1022.362h6v6h-6z" style="fill:#9d0000;fill-opacity:1;stroke:none" transform="translate(0 -992.362)" />
  <path d="M18 1022.362h6v6h-6z" style="fill:red;fill-opacity:1;stroke:none" transform="translate(0 -992.362)" />
  <path d="M18 1028.362h6v6h-6z" style="fill:#9d0000;fill-opacity:1;stroke:none" transform="translate(0 -992.362)" />
  <path d="M24 1028.362h6v6h-6z" style="fill:red;fill-opacity:1;stroke:none" transform="translate(0 -992.362)" />
  <path d="M24 1034.362h6v6h-6z" style="fill:#9d0000;fill-opacity:1;stroke:none" transform="translate(0 -992.362)" />
  <path
    d="M30 1034.362h6v6h-6zm0-6h6v6h-6zm-6-6h6v6h-6zm6 0h6v6h-6zm0-6h6v6h-6zm-6 0h6v6h-6zm0-6h6v6h-6zm6 0h6v6h-6zm6 6h6v6h-6zm6 6h6v6h-6zm-6 0h6v6h-6zm0 6h6v6h-6zm6-12h6v6h-6z"
    style="fill:red;fill-opacity:1;stroke:none" transform="translate(0 -992.362)" />
  <path d="M48 1016.362h6v6h-6z" style="fill:#ff5757;fill-opacity:1;stroke:none" transform="translate(0 -992.362)" />
  <path d="M36 1010.362h6v6h-6zm6 0h6v6h-6z" style="fill:red;fill-opacity:1;stroke:none"
    transform="translate(0 -992.362)" />
  <path d="M48 1010.362h6v6h-6zm0-6h6v6h-6zm-6 0h6v6h-6zm-6 0h6v6h-6z" style="fill:#ff5757;fill-opacity:1;stroke:none"
    transform="translate(0 -992.362)" />
</svg>
