<svg xmlns="http://www.w3.org/2000/svg" xml:space="preserve" viewBox="0 0 56.837 56.837">
  <path
    d="M43.598 15.837H36.35c-1.826 2.707-4.921 4.488-8.432 4.488s-6.606-1.781-8.432-4.488H13.24a5.32 5.32 0 0 0-5.321 5.321v30.358a5.32 5.32 0 0 0 5.321 5.321h30.358a5.32 5.32 0 0 0 5.321-5.321V21.158a5.32 5.32 0 0 0-5.321-5.321"
    style="fill:#afb6bb" />
  <path d="M27.919 20.326c-1.044 0-2.052-.159-3-.451V35a3 3 0 1 0 6 0V19.874c-.949.293-1.956.452-3 .452"
    style="fill:#e7eced" />
  <circle cx="15.151" cy="49.07" r="2.767" style="fill:#dd352e" />
  <path d="M36.919 52.837c4.422 0 8-3.578 8-8"
    style="fill:none;stroke:#e7eced;stroke-width:2;stroke-linecap:round;stroke-miterlimit:10" />
  <path
    d="M30.919 22.199V35a3 3 0 1 1-6 0V22.199c-5.731 1.356-10 6.493-10 12.638 0 7.18 5.82 13 13 13s13-5.82 13-13c0-6.145-4.27-11.282-10-12.638"
    style="fill:#546a79" />
  <path
    d="M30.919 25.496V35a3 3 0 1 1-6 0v-9.504C21.19 26.75 18.5 30.267 18.5 34.419a9.42 9.42 0 0 0 9.419 9.419 9.42 9.42 0 0 0 9.419-9.419c-.001-4.152-2.69-7.669-6.419-8.923"
    style="fill:#38454f" />
  <circle cx="27.919" cy="10.163" r="10.163" style="fill:#dd352e" />
  <path d="M21.919 10.837a1 1 0 0 1-1-1c0-3.309 2.691-6 6-6a1 1 0 1 1 0 2c-2.206 0-4 1.794-4 4a1 1 0 0 1-1 1"
    style="fill:#ed7161" />
</svg>
